<mxfile host="app.diagrams.net" agent="Mozilla/5.0 (Macintosh; Intel Mac OS X 10_15_7) AppleWebKit/537.36 (KHTML, like Gecko) Chrome/131.0.0.0 Safari/537.36" version="25.0.1">
  <diagram name="Page-1" id="0u0-M9E6lwnY4OtsPx06">
    <mxGraphModel dx="3217" dy="1308" grid="1" gridSize="10" guides="1" tooltips="1" connect="1" arrows="1" fold="1" page="1" pageScale="1" pageWidth="827" pageHeight="1169" math="0" shadow="0">
      <root>
        <mxCell id="0" />
        <mxCell id="1" parent="0" />
        <mxCell id="mYFpyGKQAPeTWjzHC4IL-1" value="&lt;font style=&quot;font-size: 20px;&quot;&gt;Applicant &lt;br&gt;&lt;br&gt;&lt;/font&gt;" style="swimlane;horizontal=0;whiteSpace=wrap;html=1;startSize=79;fillColor=#d5e8d4;strokeColor=#000000;strokeWidth=2;" vertex="1" parent="1">
          <mxGeometry x="-790" y="9" width="2669" height="510.995" as="geometry" />
        </mxCell>
        <mxCell id="mYFpyGKQAPeTWjzHC4IL-2" value="&lt;span&gt;&lt;/span&gt;&lt;span&gt;&lt;/span&gt;&lt;span style=&quot;&quot;&gt;Applicant fills in the Ardhipay Land Stamp Duty form&amp;nbsp;&amp;nbsp;&lt;br&gt;    &lt;/span&gt;" style="rounded=0;whiteSpace=wrap;html=1;fillColor=#F6EFDA;strokeColor=#c5bfae;" vertex="1" parent="mYFpyGKQAPeTWjzHC4IL-1">
          <mxGeometry x="290" y="171.395" width="160" height="114.5" as="geometry" />
        </mxCell>
        <mxCell id="mYFpyGKQAPeTWjzHC4IL-4" style="edgeStyle=orthogonalEdgeStyle;rounded=0;orthogonalLoop=1;jettySize=auto;html=1;exitX=0;exitY=0;exitDx=170;exitDy=83.5;exitPerimeter=0;entryX=0.5;entryY=0;entryDx=0;entryDy=0;fillColor=#ffe6cc;strokeColor=#d79b00;dashed=1;" edge="1" parent="mYFpyGKQAPeTWjzHC4IL-1" source="mYFpyGKQAPeTWjzHC4IL-5" target="mYFpyGKQAPeTWjzHC4IL-2">
          <mxGeometry relative="1" as="geometry" />
        </mxCell>
        <mxCell id="mYFpyGKQAPeTWjzHC4IL-5" value="&lt;blockquote style=&quot;margin: 0 0 0 40px; border: none; padding: 0px;&quot;&gt;&lt;/blockquote&gt;&lt;blockquote style=&quot;margin: 0 0 0 40px; border: none; padding: 0px;&quot;&gt;&lt;/blockquote&gt;&lt;span style=&quot;background-color: initial;&quot;&gt;&lt;div style=&quot;&quot;&gt;- Location Details&lt;br&gt;- Process Type and Details&lt;br&gt;- Parcel Details&lt;/div&gt;&lt;div style=&quot;&quot;&gt;- Buyer / Seller Details&lt;br&gt;- Additional Details&lt;br&gt;- Documents&lt;/div&gt;&lt;/span&gt;" style="shape=note;whiteSpace=wrap;html=1;backgroundOutline=1;darkOpacity=0.05;size=17;align=left;fillColor=#e1d5e7;strokeColor=#9673a6;opacity=50;" vertex="1" parent="mYFpyGKQAPeTWjzHC4IL-1">
          <mxGeometry x="110" y="16.18" width="170" height="150" as="geometry" />
        </mxCell>
        <mxCell id="mYFpyGKQAPeTWjzHC4IL-6" value="&lt;font style=&quot;font-size: 15px;&quot; color=&quot;#ffffff&quot;&gt;Start&lt;/font&gt;" style="ellipse;whiteSpace=wrap;html=1;aspect=fixed;fillColor=#008a00;strokeColor=#005700;fontColor=#ffffff;" vertex="1" parent="mYFpyGKQAPeTWjzHC4IL-1">
          <mxGeometry x="110" y="187.31" width="82.25" height="82.25" as="geometry" />
        </mxCell>
        <mxCell id="mYFpyGKQAPeTWjzHC4IL-7" style="edgeStyle=orthogonalEdgeStyle;rounded=0;orthogonalLoop=1;jettySize=auto;html=1;entryX=0;entryY=0.5;entryDx=0;entryDy=0;strokeColor=#d79b00;fillColor=#ffe6cc;strokeWidth=2;" edge="1" parent="mYFpyGKQAPeTWjzHC4IL-1" source="mYFpyGKQAPeTWjzHC4IL-6" target="mYFpyGKQAPeTWjzHC4IL-2">
          <mxGeometry relative="1" as="geometry" />
        </mxCell>
        <mxCell id="mYFpyGKQAPeTWjzHC4IL-8" value="" style="edgeStyle=orthogonalEdgeStyle;rounded=0;orthogonalLoop=1;jettySize=auto;html=1;entryX=0.5;entryY=0;entryDx=0;entryDy=0;fillColor=#fff2cc;strokeColor=#d6b656;strokeWidth=2;" edge="1" parent="mYFpyGKQAPeTWjzHC4IL-1" source="mYFpyGKQAPeTWjzHC4IL-9" target="mYFpyGKQAPeTWjzHC4IL-60">
          <mxGeometry x="0.0029" relative="1" as="geometry">
            <mxPoint x="1020.0000000000191" y="223.43499999999995" as="targetPoint" />
            <mxPoint as="offset" />
          </mxGeometry>
        </mxCell>
        <mxCell id="mYFpyGKQAPeTWjzHC4IL-62" value="No" style="edgeLabel;html=1;align=center;verticalAlign=middle;resizable=0;points=[];" vertex="1" connectable="0" parent="mYFpyGKQAPeTWjzHC4IL-8">
          <mxGeometry x="-0.1057" relative="1" as="geometry">
            <mxPoint as="offset" />
          </mxGeometry>
        </mxCell>
        <mxCell id="mYFpyGKQAPeTWjzHC4IL-9" value="&lt;span style=&quot;font-size: 13px;&quot;&gt;Allowed registry?&lt;/span&gt;" style="strokeWidth=2;html=1;shape=mxgraph.flowchart.decision;whiteSpace=wrap;fillColor=#008a00;strokeColor=#005700;fontColor=#ffffff;" vertex="1" parent="mYFpyGKQAPeTWjzHC4IL-1">
          <mxGeometry x="550" y="176.11" width="100" height="105.07" as="geometry" />
        </mxCell>
        <mxCell id="mYFpyGKQAPeTWjzHC4IL-59" style="edgeStyle=orthogonalEdgeStyle;rounded=0;orthogonalLoop=1;jettySize=auto;html=1;entryX=0;entryY=0.5;entryDx=0;entryDy=0;entryPerimeter=0;" edge="1" parent="mYFpyGKQAPeTWjzHC4IL-1" source="mYFpyGKQAPeTWjzHC4IL-2" target="mYFpyGKQAPeTWjzHC4IL-9">
          <mxGeometry relative="1" as="geometry" />
        </mxCell>
        <mxCell id="mYFpyGKQAPeTWjzHC4IL-60" value="Normal Ardhipay Land Stamp Duty process" style="rounded=1;whiteSpace=wrap;html=1;fillColor=#fff2cc;strokeColor=#d6b656;" vertex="1" parent="mYFpyGKQAPeTWjzHC4IL-1">
          <mxGeometry x="520" y="381" width="160" height="106.56" as="geometry" />
        </mxCell>
        <mxCell id="mYFpyGKQAPeTWjzHC4IL-61" value="Remove the &lt;b&gt;&quot;Assessed Stamp Duty Amount&quot;&lt;/b&gt; and create a &lt;b&gt;stamp duty / valuation request&lt;/b&gt; to the valuation department." style="rounded=1;whiteSpace=wrap;html=1;fillColor=#fff2cc;strokeColor=#d6b656;" vertex="1" parent="mYFpyGKQAPeTWjzHC4IL-1">
          <mxGeometry x="900" y="164.14" width="210" height="129.01" as="geometry" />
        </mxCell>
        <mxCell id="mYFpyGKQAPeTWjzHC4IL-43" style="edgeStyle=orthogonalEdgeStyle;rounded=0;orthogonalLoop=1;jettySize=auto;html=1;exitX=1;exitY=0.5;exitDx=0;exitDy=0;exitPerimeter=0;fillColor=#fff2cc;strokeColor=#d6b656;strokeWidth=2;entryX=0;entryY=0.5;entryDx=0;entryDy=0;" edge="1" parent="mYFpyGKQAPeTWjzHC4IL-1" source="mYFpyGKQAPeTWjzHC4IL-9" target="mYFpyGKQAPeTWjzHC4IL-61">
          <mxGeometry relative="1" as="geometry" />
        </mxCell>
        <mxCell id="mYFpyGKQAPeTWjzHC4IL-44" value="Yes" style="edgeLabel;html=1;align=center;verticalAlign=middle;resizable=0;points=[];" connectable="0" vertex="1" parent="mYFpyGKQAPeTWjzHC4IL-43">
          <mxGeometry x="-0.1719" y="1" relative="1" as="geometry">
            <mxPoint as="offset" />
          </mxGeometry>
        </mxCell>
        <mxCell id="mYFpyGKQAPeTWjzHC4IL-16" value="&lt;font style=&quot;font-size: 20px;&quot;&gt;DLV&lt;/font&gt;" style="swimlane;horizontal=0;whiteSpace=wrap;html=1;startSize=78;fillColor=#d5e8d4;strokeColor=#000000;strokeWidth=2;" vertex="1" parent="1">
          <mxGeometry x="-800" y="560" width="2669" height="280" as="geometry" />
        </mxCell>
        <mxCell id="mYFpyGKQAPeTWjzHC4IL-18" value="&lt;font style=&quot;font-size: 20px;&quot;&gt;Registrar&lt;/font&gt;" style="swimlane;horizontal=0;whiteSpace=wrap;html=1;startSize=78;fillColor=#d5e8d4;strokeColor=#000000;strokeWidth=2;" vertex="1" parent="1">
          <mxGeometry x="-800" y="840" width="2669" height="450" as="geometry" />
        </mxCell>
        <mxCell id="mYFpyGKQAPeTWjzHC4IL-45" value="&lt;font style=&quot;font-size: 20px;&quot;&gt;Government Surveyor&lt;/font&gt;" style="swimlane;horizontal=0;whiteSpace=wrap;html=1;startSize=78;fillColor=#d5e8d4;strokeColor=#000000;strokeWidth=2;" vertex="1" parent="1">
          <mxGeometry x="-800" y="1350" width="2669" height="270" as="geometry" />
        </mxCell>
      </root>
    </mxGraphModel>
  </diagram>
</mxfile>
